<?xml version="1.0" encoding="utf-8"?>
<!-- Generator: Adobe Illustrator 18.1.1, SVG Export Plug-In . SVG Version: 6.00 Build 0)  -->
<!DOCTYPE svg PUBLIC "-//W3C//DTD SVG 1.1//EN" "http://www.w3.org/Graphics/SVG/1.1/DTD/svg11.dtd">
<svg version="1.1" id="Layer_1" xmlns="http://www.w3.org/2000/svg" xmlns:xlink="http://www.w3.org/1999/xlink" x="0px" y="0px"
	 viewBox="0 0 216 216" enable-background="new 0 0 216 216" xml:space="preserve">
<g>
	<path fill="#FFFFFF" d="M79.7,82H51c-0.8,0-1.5,0.5-1.7,1.3c-0.2,0.8,0.1,1.6,0.8,2l28.7,16.8c0.3,0.2,0.6,0.2,0.9,0.2
		c0.3,0,0.6-0.1,0.9-0.2c0.6-0.3,0.9-0.9,0.9-1.5V83.7C81.5,82.8,80.7,82,79.7,82z M77.9,97.4L57.6,85.5h20.3V97.4z"/>
	<path fill="#FFFFFF" d="M210.7,109c0-0.1,0-0.2,0-0.4l-1.5-46.7c0-0.6-0.3-1.1-0.8-1.4s-1.1-0.4-1.7-0.1L195.5,65V1.8
		c0-0.6-0.3-1.2-0.9-1.5c-0.5-0.3-1.2-0.3-1.7-0.1l-51.6,26.4H74.7L23.1,0.2c-0.6-0.3-1.2-0.3-1.7,0.1c-0.5,0.3-0.9,0.9-0.9,1.5V65
		L9.4,60.3c-0.5-0.2-1.2-0.2-1.7,0.1s-0.8,0.9-0.8,1.4l-1.6,47c0,0.2,0,0.3,0.1,0.5c0,0,0,0,0,0l5.2,18.9c0.1,0.2,0.1,0.4,0.3,0.6
		l20.6,29.5l-2.9,24.7c-0.1,0.6,0.2,1.2,0.6,1.6c0.1,0.1,0.3,0.2,0.5,0.3c0,0,0.1,0,0.1,0.1c0.2,0,0.3,0.1,0.5,0.1c0,0,0,0,0.1,0
		c0,0,0,0,0,0c0.2,0,0.3,0,0.5-0.1l33.5-9.2l13.9,24.3c0.2,0.3,0.4,0.5,0.7,0.7l28.3,14.9c0.3,0.1,0.5,0.2,0.8,0.2
		c0.3,0,0.6-0.1,0.8-0.2l28.3-14.9c0,0,0,0,0,0c0.1-0.1,0.2-0.1,0.3-0.2c0,0,0,0,0,0c0.1-0.1,0.2-0.2,0.3-0.4c0,0,0,0,0,0l13.9-24.3
		l33.5,9.2c0.1,0,0.3,0.1,0.5,0.1c0,0,0,0,0,0c0,0,0,0,0.1,0c0.2,0,0.3,0,0.5-0.1c0,0,0.1,0,0.1-0.1c0.2-0.1,0.3-0.2,0.5-0.3
		c0.5-0.4,0.7-1,0.6-1.6l-2.9-24.7l20.6-29.5c0.1-0.2,0.2-0.4,0.3-0.6l5.1-18.7C210.6,109.5,210.7,109.2,210.7,109z M195.4,99.5
		l0.1-30.6l10.1-4.3l1.4,41.3L195.4,99.5z M24.1,4.7L73.5,30c0.3,0.1,0.5,0.2,0.8,0.2h67.4c0.3,0,0.6-0.1,0.8-0.2l49.4-25.3v59.9
		l-54.7-31.4c-0.5-0.3-1.2-0.3-1.8,0L108,48.9L80.6,33.2c-0.5-0.3-1.2-0.3-1.8,0L24.1,64.6V4.7z M161.4,51.2L108,81.7L54.6,51.2
		l25.1-14.4l27.4,15.7c0.5,0.3,1.2,0.3,1.8,0l27.4-15.7L161.4,51.2z M20.5,68.9l0.1,30.6L9,105.9l1.4-41.3L20.5,68.9z M13.9,127.1
		l-4.7-17.3l13.2-7.2L49.1,118v58.3l-16.7,4.6l2.7-22.7c0.1-0.4-0.1-0.9-0.3-1.2L13.9,127.1z M108,212.2l-26.4-13.9l-0.1-28.7
		l25.6,14.7c0.3,0.2,0.6,0.2,0.9,0.2s0.6-0.1,0.9-0.2l25.6-14.7v28.7L108,212.2z M108,150.1L81.5,135v-14.7l25.6,14.7
		c0.5,0.3,1.2,0.3,1.8,0l25.6-14.7V135L108,150.1z M108,154.2l24.5,12.3l-24.5,14l-24.5-14L108,154.2z M151.4,172
		c-0.8-0.2-1.6,0.1-2,0.8l-11.3,19.7v-26.2c0,0,0,0,0,0c0,0,0,0,0,0c0,0,0,0,0-0.1c0-0.1,0-0.2-0.1-0.4c0,0,0-0.1,0-0.1
		c0-0.1-0.1-0.2-0.2-0.3c0,0,0,0,0-0.1c-0.1-0.1-0.2-0.2-0.3-0.3c0,0-0.1,0-0.1-0.1c-0.1-0.1-0.2-0.1-0.3-0.2c0,0,0,0-0.1,0
		l-25.3-12.8l25.4-14.5c0.6-0.3,0.9-0.9,0.9-1.5v-18.8c0-0.6-0.3-1.2-0.9-1.5c-0.6-0.3-1.2-0.3-1.8,0L108,131.3l-27.4-15.7
		c-0.6-0.3-1.2-0.3-1.8,0c-0.6,0.3-0.9,0.9-0.9,1.5V136c0,0.6,0.3,1.2,0.9,1.5l25.4,14.5l-25.3,12.8c0,0,0,0-0.1,0
		c-0.1,0.1-0.2,0.1-0.3,0.2c0,0-0.1,0-0.1,0.1c-0.1,0.1-0.2,0.2-0.3,0.3c0,0,0,0,0,0.1c-0.1,0.1-0.1,0.2-0.2,0.3c0,0,0,0.1,0,0.1
		c0,0.1-0.1,0.2-0.1,0.4c0,0,0,0,0,0.1c0,0,0,0,0,0c0,0,0,0,0,0l0.1,26.3l-11.4-19.8c-0.4-0.7-1.2-1-2-0.8l-11.9,3.3V117
		c0-0.6-0.3-1.2-0.9-1.5L24.2,99.5l-0.1-30.8L51,53.3l56.1,32c0.3,0.2,0.6,0.2,0.9,0.2s0.6-0.1,0.9-0.2l56.1-32l26.9,15.5l-0.1,30.8
		l-27.6,15.9c-0.6,0.3-0.9,0.9-0.9,1.5v58.3L151.4,172z M181.2,156.9c-0.3,0.4-0.4,0.8-0.3,1.2l2.7,22.7l-16.7-4.6V118l26.7-15.4
		l13.2,7.2l-4.7,17.3L181.2,156.9z"/>
	<path fill="#FFFFFF" d="M166.7,83.3c-0.2-0.8-0.9-1.3-1.7-1.3h-28.7c-1,0-1.8,0.8-1.8,1.8v16.8c0,0.6,0.3,1.2,0.9,1.5
		c0.3,0.2,0.6,0.2,0.9,0.2c0.3,0,0.6-0.1,0.9-0.2l28.7-16.8C166.6,84.9,166.9,84.1,166.7,83.3z M138.1,97.4V85.5h20.3L138.1,97.4z"
		/>
</g>
</svg>
